<?xml version="1.0" encoding="utf-8"?>
<!-- Generator: Adobe Illustrator 16.0.0, SVG Export Plug-In . SVG Version: 6.00 Build 0)  -->
<!DOCTYPE svg PUBLIC "-//W3C//DTD SVG 1.1//EN" "http://www.w3.org/Graphics/SVG/1.1/DTD/svg11.dtd">
<svg version="1.1" id="Layer_1" xmlns="http://www.w3.org/2000/svg" xmlns:xlink="http://www.w3.org/1999/xlink" x="0px" y="0px"
	 width="22px" height="48px" viewBox="0 0 22 48" enable-background="new 0 0 22 48" xml:space="preserve">
<path fill-rule="evenodd" clip-rule="evenodd" fill="#FEC530" d="M17.57,32.024V8.259c0-3.635-2.963-6.6-6.544-6.6
	c-3.634,0-6.6,2.965-6.6,6.6v23.766c-1.396,1.566-2.124,3.579-2.124,5.703c0,4.755,3.915,8.67,8.666,8.67
	c4.813,0,8.729-3.915,8.729-8.67C19.697,35.604,18.97,33.591,17.57,32.024z M10.969,44.048c-3.464,0-6.319-2.852-6.319-6.32
	c0-1.676,0.616-3.241,1.734-4.417c0.223-0.223,0.335-0.503,0.335-0.838V8.259c0-2.35,1.903-4.251,4.25-4.251
	c2.351,0,4.251,1.901,4.251,4.251v24.214c0,0.335,0.111,0.615,0.339,0.838c1.117,1.176,1.788,2.741,1.788,4.417
	C17.347,41.196,14.495,44.048,10.969,44.048z"/>
<path fill-rule="evenodd" clip-rule="evenodd" fill="#FEC530" d="M12.985,33.982l0.055-19.46c0-1.062-0.895-1.957-1.958-1.957
	c-1.06,0-1.958,0.896-1.958,1.957l-0.112,19.46c-1.229,0.671-2.122,2.069-2.122,3.634c0,2.294,1.846,4.14,4.08,4.14
	c2.294,0,4.14-1.846,4.14-4.14C15.109,36.052,14.215,34.653,12.985,33.982L12.985,33.982z"/>
</svg>
