<?xml version="1.0" encoding="utf-8"?>
<!-- Generator: Adobe Illustrator 16.0.0, SVG Export Plug-In . SVG Version: 6.00 Build 0)  -->
<!DOCTYPE svg PUBLIC "-//W3C//DTD SVG 1.1//EN" "http://www.w3.org/Graphics/SVG/1.1/DTD/svg11.dtd">
<svg version="1.1" id="Layer_1" xmlns="http://www.w3.org/2000/svg" xmlns:xlink="http://www.w3.org/1999/xlink" x="0px" y="0px"
	 width="35px" height="40px" viewBox="0 0 35 40" enable-background="new 0 0 35 40" xml:space="preserve">
<g>
	<path fill-rule="evenodd" clip-rule="evenodd" fill="#FEC530" d="M22.729,5.978V1.721c0-0.626-0.438-1.065-1.064-1.065h-8.39
		c-0.627,0-1.065,0.439-1.065,1.065v4.257c1.63-0.564,3.382-0.878,5.26-0.878C19.284,5.1,21.101,5.413,22.729,5.978L22.729,5.978z"
		/>
	<path fill-rule="evenodd" clip-rule="evenodd" fill="#FEC530" d="M33.058,16.12c-1.878-4.446-5.635-8.016-10.268-9.516
		c-1.689-0.563-3.443-0.877-5.26-0.877c-1.877,0-3.63,0.313-5.321,0.877c-1.439,0.437-2.753,1.125-4.007,1.94L6.764,7.104
		c-0.251-0.188-0.626-0.188-0.878,0l-3.441,3.444c-0.251,0.251-0.251,0.627,0,0.877l1.377,1.378
		c-0.752,1.062-1.377,2.188-1.878,3.317c-0.815,2.003-1.253,4.131-1.253,6.448c0,2.255,0.438,4.383,1.253,6.384
		c2.505,6.074,8.513,10.394,15.587,10.394c7.012,0,12.96-4.319,15.527-10.394c0.814-2.001,1.252-4.129,1.252-6.384
		C34.31,20.251,33.872,18.123,33.058,16.12z M30.991,29.016c-2.44,5.01-7.512,8.452-13.461,8.452
		c-5.945,0-11.081-3.442-13.521-8.452c-0.939-2.001-1.44-4.192-1.44-6.447c0-2.317,0.501-4.509,1.44-6.448
		c1.689-3.445,4.632-6.199,8.2-7.513c1.63-0.628,3.444-1.003,5.321-1.003c1.816,0,3.57,0.375,5.26,1.003
		c3.632,1.313,6.512,4.067,8.201,7.513c0.939,1.939,1.44,4.131,1.44,6.448C32.432,24.823,31.931,27.015,30.991,29.016z"/>
	<path fill-rule="evenodd" clip-rule="evenodd" fill="#FEC530" d="M17.53,8.607c-7.699,0-13.959,6.259-13.959,13.961
		c0,7.7,6.26,13.898,13.959,13.898c7.639,0,13.898-6.198,13.898-13.898C31.429,14.866,25.169,8.607,17.53,8.607z M17.53,35.089
		c-6.949,0-12.583-5.634-12.583-12.521c0-6.949,5.634-12.585,12.583-12.585c6.888,0,12.522,5.636,12.522,12.585
		C30.053,29.455,24.418,35.089,17.53,35.089z"/>
	<polygon fill-rule="evenodd" clip-rule="evenodd" fill="#FEC530" points="9.957,13.741 9.957,13.741 12.271,16.057 11.271,17.12 
		8.954,14.741 	"/>
	<polygon fill-rule="evenodd" clip-rule="evenodd" fill="#FEC530" points="16.78,10.924 16.78,10.924 18.22,10.924 18.22,14.24 
		16.78,14.24 	"/>
	<polygon fill-rule="evenodd" clip-rule="evenodd" fill="#FEC530" points="23.729,27.577 23.729,27.577 26.047,29.831 
		25.044,30.895 22.729,28.516 	"/>
	<polygon fill-rule="evenodd" clip-rule="evenodd" fill="#FEC530" points="25.044,13.741 25.044,13.741 26.047,14.741 23.729,17.12 
		22.729,16.057 	"/>
	<polygon fill-rule="evenodd" clip-rule="evenodd" fill="#FEC530" points="28.925,21.629 28.925,21.629 28.925,23.069 
		25.607,23.069 25.607,21.629 	"/>
	<polygon fill-rule="evenodd" clip-rule="evenodd" fill="#FEC530" points="18.22,33.775 18.22,33.775 16.78,33.775 16.78,30.456 
		18.22,30.456 	"/>
	<polygon fill-rule="evenodd" clip-rule="evenodd" fill="#FEC530" points="9.957,30.895 9.957,30.895 8.954,29.831 11.271,27.577 
		12.271,28.516 	"/>
	<path fill-rule="evenodd" clip-rule="evenodd" fill="#FEC530" d="M22.916,18.436L22.916,18.436
		c-0.126-0.188-0.376-0.188-0.562-0.062l-4.195,2.942c-0.188,0-0.313-0.062-0.501-0.062c-0.064,0-0.127,0-0.127,0.062l-3.067-2.629
		c-0.188-0.126-0.438-0.126-0.562,0.062l-0.25,0.25c-0.126,0.189-0.062,0.438,0.062,0.564l3.006,2.566v0.064
		c0,0.5,0.375,0.938,0.875,1h0.252c0.438-0.062,0.877-0.5,0.877-1c0-0.064,0-0.064-0.063-0.064l4.194-3.067
		c0.252-0.125,0.252-0.313,0.188-0.501L22.916,18.436z"/>
	<rect x="6.074" y="21.629" fill-rule="evenodd" clip-rule="evenodd" fill="#FEC530" width="3.319" height="1.44"/>
</g>
</svg>
